<?xml version="1.0" standalone="no"?>
<!DOCTYPE svg PUBLIC "-//W3C//DTD SVG 20010904//EN"
 "http://www.w3.org/TR/2001/REC-SVG-20010904/DTD/svg10.dtd">
<svg version="1.0" xmlns="http://www.w3.org/2000/svg"
 width="442.000000pt" height="442.000000pt" viewBox="0 0 442.000000 442.000000"
 preserveAspectRatio="xMidYMid meet">
<metadata>
Created by potrace 1.14, written by Peter Selinger 2001-2017
</metadata>
<g transform="translate(0.000000,442.000000) scale(0.100000,-0.100000)"
fill="#000000" stroke="none">
<path d="M110 2298 c0 -1444 3 -2024 11 -2053 15 -52 82 -119 134 -134 29 -8
609 -11 2053 -11 l2012 0 0 105 0 105 -2000 0 -2000 0 0 2000 0 2000 -105 0
-105 0 0 -2012z"/>
<path d="M876 3691 c-46 -31 -66 -69 -66 -131 0 -95 55 -150 150 -150 95 0
150 55 150 150 0 95 -55 150 -150 150 -37 0 -64 -6 -84 -19z"/>
<path d="M1676 3491 c-46 -31 -66 -69 -66 -131 0 -95 55 -150 150 -150 95 0
150 55 150 150 0 95 -55 150 -150 150 -37 0 -64 -6 -84 -19z"/>
<path d="M2582 3190 c-130 -79 -74 -280 78 -280 85 0 150 65 150 150 0 85 -65
150 -150 150 -27 0 -58 -8 -78 -20z"/>
<path d="M1076 3091 c-46 -31 -66 -69 -66 -131 0 -95 55 -150 150 -150 95 0
150 55 150 150 0 95 -55 150 -150 150 -37 0 -64 -6 -84 -19z"/>
<path d="M2776 2391 c-46 -31 -66 -69 -66 -131 0 -95 55 -150 150 -150 95 0
150 55 150 150 0 95 -55 150 -150 150 -37 0 -64 -6 -84 -19z"/>
<path d="M3482 2390 c-69 -42 -94 -139 -52 -208 79 -130 280 -74 280 78 0 116
-129 190 -228 130z"/>
<path d="M1876 2291 c-46 -31 -66 -69 -66 -131 0 -62 20 -100 66 -131 20 -13
47 -19 84 -19 62 0 100 20 131 66 26 39 26 129 0 168 -31 46 -69 66 -131 66
-37 0 -64 -6 -84 -19z"/>
<path d="M3282 1690 c-69 -42 -94 -139 -52 -208 79 -130 280 -74 280 78 0 116
-129 190 -228 130z"/>
<path d="M3776 1491 c-46 -31 -66 -69 -66 -131 0 -95 55 -150 150 -150 95 0
150 55 150 150 0 95 -55 150 -150 150 -37 0 -64 -6 -84 -19z"/>
</g>
</svg>
